<?xml version="1.0" encoding="UTF-8" standalone="no"?><!DOCTYPE svg PUBLIC "-//W3C//DTD SVG 1.1//EN" "http://www.w3.org/Graphics/SVG/1.1/DTD/svg11.dtd"><svg width="100%" height="100%" viewBox="0 0 834 1021" version="1.1" xmlns="http://www.w3.org/2000/svg" xmlns:xlink="http://www.w3.org/1999/xlink" xml:space="preserve" xmlns:serif="http://www.serif.com/" style="fill-rule:evenodd;clip-rule:evenodd;stroke-linejoin:round;stroke-miterlimit:2;"><g><g><path d="M0.316,2.466l202.161,-0l-0,197.545l609.961,609.96l-287.255,-0l-525.183,-525.184"/><path d="M0.317,340.472l228.482,228.482l-228.416,228.417"/><path d="M292.814,223.81l140.532,140.53l361.875,-361.875l-281.063,-0"/></g><path d="M14.525,979.167l0,-122.5l9.625,-0l0,81.2l43.4,-46.2l11.725,-0l-29.4,31.5l32.55,56l-11.2,-0l-27.825,-49l-19.25,20.65l0,28.35l-9.625,-0Zm93.454,35l14.175,-35l-32.725,-87.5l9.975,-0l27.825,75.075l30.625,-75.075l9.8,-0l-49.875,122.5l-9.8,-0Zm76.354,-35l-0,-124.25l9.625,-0l-0,124.25l-9.625,-0Zm70.11,2.8c-23.45,-0 -39.2,-18.725 -39.2,-46.375c0,-27.65 15.925,-46.725 38.675,-46.725c22.4,-0 36.75,18.375 36.75,46.9l0,1.4l-65.275,-0c0,21.175 11.725,35.525 29.05,35.525c12.075,-0 21.7,-7.175 25.025,-18.55l10.325,1.4c-4.2,16.1 -17.85,26.425 -35.35,26.425Zm26.075,-53.2c0,-18.55 -10.675,-30.625 -26.775,-30.625c-16.625,-0 -28.35,12.775 -28.35,30.625l55.125,-0Zm96.469,53.2c-16.1,-0 -27.65,-11.2 -27.65,-26.95c0,-16.8 13.3,-26.775 36.925,-27.825c15.925,-0.7 22.4,-5.25 21.35,-14.875c-1.05,-9.275 -8.05,-14.175 -19.95,-14.175c-15.05,-0 -25.725,7.875 -26.775,19.95l-9.275,-1.4c0.7,-16.625 15.225,-27.825 35.875,-27.825c19.95,-0 30.275,10.325 30.275,30.625l0,59.675l-9.625,-0l0,-20.125c-4.375,13.65 -16.45,22.925 -31.15,22.925Zm1.925,-9.275c15.925,-0 29.225,-15.575 29.225,-34.3l0,-10.5c-3.5,4.55 -10.5,7.175 -20.65,7.525c-17.5,0.525 -28,7.7 -28,19.25c0,10.325 8.225,18.025 19.425,18.025Zm96.871,44.275c-18.55,-0 -32.55,-10.15 -35.35,-25.55l10.325,-1.4c2.625,10.85 12.6,17.675 25.55,17.675c17.15,-0 28.875,-12.25 28.875,-30.1l0,-17.5c-4.025,13.125 -15.925,21.875 -30.975,21.875c-22.05,-0 -36.75,-18.725 -36.75,-46.55c0,-27.825 14.875,-46.55 36.75,-46.55c15.05,-0 26.95,8.75 30.975,21.875l0,-19.075l9.625,-0l0,85.925c0,23.45 -15.925,39.375 -39.025,39.375Zm0.525,-44.275c17.15,-0 28.7,-14.875 28.7,-37.275c0,-22.4 -11.55,-37.275 -28.7,-37.275c-17.15,-0 -28.7,14.875 -28.7,37.275c0,22.4 11.55,37.275 28.7,37.275Zm92.942,9.275c-17.15,-0 -28.35,-13.475 -28.35,-34.475l-0,-55.825l9.625,-0l-0,55.825c-0,16.45 7,25.2 19.775,25.2c16.975,-0 28,-15.225 28,-38.5l-0,-42.525l9.625,-0l-0,87.5l-9.625,-0l-0,-15.925c-5.25,11.2 -16.275,18.725 -29.05,18.725Zm88.742,-0c-16.1,-0 -27.65,-11.2 -27.65,-26.95c-0,-16.8 13.3,-26.775 36.925,-27.825c15.925,-0.7 22.4,-5.25 21.35,-14.875c-1.05,-9.275 -8.05,-14.175 -19.95,-14.175c-15.05,-0 -25.725,7.875 -26.775,19.95l-9.275,-1.4c0.7,-16.625 15.225,-27.825 35.875,-27.825c19.95,-0 30.275,10.325 30.275,30.625l-0,59.675l-9.625,-0l-0,-20.125c-4.375,13.65 -16.45,22.925 -31.15,22.925Zm1.925,-9.275c15.925,-0 29.225,-15.575 29.225,-34.3l-0,-10.5c-3.5,4.55 -10.5,7.175 -20.65,7.525c-17.5,0.525 -28,7.7 -28,19.25c-0,10.325 8.225,18.025 19.425,18.025Zm93.916,9.275c-19.25,-0 -34.825,-10.5 -37.275,-29.225l9.275,-1.4c3.325,13.3 14.525,21.35 28.35,21.35c11.725,-0 22.75,-5.95 22.75,-16.975c0,-25.025 -55.825,-11.025 -55.825,-42.35c0,-16.45 15.225,-24.5 31.5,-24.5c15.05,-0 28.7,6.825 30.8,21.875l-9.45,1.4c-1.575,-9.975 -10.85,-14 -21.175,-14c-11.025,-0 -21.525,4.55 -21.525,14.525c0,22.925 55.825,9.625 55.825,42.175c0,16.1 -13.65,27.125 -33.25,27.125Zm52.863,-2.8l-0,-14l14,-0l-0,14l-14,-0Z" style="fill:#050505;fill-rule:nonzero;"/></g></svg>